<svg width="278" height="302" viewBox="0 0 278 302" fill="none" xmlns="http://www.w3.org/2000/svg">
<path d="M274.068 214.636C272.572 211.009 271.073 207.08 269.577 203.752C267.177 198.313 264.78 193.17 262.689 188.336L262.39 188.034C241.72 142.686 219.561 96.7408 196.196 51.3994L195.298 49.5814C192.84 44.8777 190.446 40.1411 188.114 35.3726C185.116 29.9276 182.124 24.1897 177.33 18.7448C167.747 6.65293 153.968 0 139.295 0C124.317 0 110.84 6.65296 100.96 18.1378C96.4662 23.5767 93.1689 29.3207 90.1768 34.7656C87.8392 39.5311 85.4444 44.2677 82.9928 48.9744L82.0922 50.7924C59.0291 96.1337 36.5674 142.082 15.901 187.427L15.5989 188.028C13.5044 192.872 11.1047 198.008 8.70808 203.444C7.21203 206.772 5.71599 210.399 4.21994 214.328C0.324236 225.511 -0.875651 236.093 0.62638 246.98C3.92067 269.653 18.8931 288.691 39.5625 297.162C47.3509 300.49 55.4385 302 63.8224 302C66.219 302 69.2112 301.698 71.6109 301.393C81.4968 300.185 91.6788 296.863 101.565 291.119C113.844 284.164 125.525 274.192 138.703 259.682C151.88 274.192 163.86 284.164 175.84 291.119C185.729 296.863 195.908 300.185 205.791 301.393C208.188 301.701 211.186 302 213.583 302C221.969 302 230.353 300.49 237.84 297.162C258.808 288.691 273.481 269.351 276.779 246.98C279.157 236.401 277.96 225.825 274.068 214.636ZM138.993 230.355C122.818 209.798 112.333 190.452 108.743 174.133C107.247 167.178 106.944 161.132 107.845 155.69C108.441 150.852 110.242 146.618 112.638 142.991C118.329 134.834 127.913 129.691 138.996 129.691C150.081 129.691 159.964 134.529 165.356 142.991C167.753 146.618 169.548 150.855 170.152 155.69C171.047 161.135 170.748 167.48 169.252 174.133C165.646 190.151 155.162 209.499 138.993 230.355ZM258.491 244.564C256.396 260.283 245.912 273.89 231.239 279.936C224.052 282.956 216.261 283.865 208.478 282.956C200.992 282.047 193.5 279.628 185.717 275.098C174.934 269.046 164.153 259.682 151.572 245.772C171.337 221.289 183.318 198.914 187.812 178.968C189.909 169.594 190.211 161.132 189.308 153.268C188.114 145.712 185.415 138.757 181.223 132.711C171.933 119.103 156.356 111.249 138.99 111.249C121.624 111.249 106.047 119.411 96.7623 132.711C92.5704 138.757 89.8715 145.712 88.6747 153.268C87.4779 161.132 87.7741 169.896 90.1708 178.968C94.6619 198.914 106.942 221.588 126.408 246.074C114.129 259.981 103.046 269.355 92.2622 275.4C84.4738 279.936 76.9906 282.355 69.5044 283.258C61.4198 284.167 53.6284 282.956 46.7406 280.238C32.0673 274.192 21.583 260.585 19.4886 244.866C18.591 237.31 19.1864 229.754 22.1845 221.289C23.0791 218.263 24.5811 215.243 26.0772 211.616C28.1746 206.778 30.5653 201.635 32.965 196.498L33.2672 195.897C53.9306 150.852 76.093 104.904 99.1561 60.1663L100.054 58.3483C102.453 53.8184 104.85 48.9804 107.244 44.4445C109.64 39.6065 112.333 35.0706 115.63 31.1386C121.92 23.8908 130.304 19.9558 139.591 19.9558C148.879 19.9558 157.263 23.8908 163.552 31.1386C166.849 35.0796 169.542 39.6156 171.939 44.4445C174.338 48.9804 176.735 53.8184 179.126 58.3483L180.026 60.1663C202.738 105.09 224.606 150.442 245.619 196.199V196.501C248.019 201.345 250.113 206.781 252.51 211.625C254.006 215.246 255.505 218.266 256.402 221.292C258.793 229.144 259.691 236.706 258.491 244.564Z" fill="black"/>
</svg>
