<svg width="1024" height="1024" viewBox="0 0 1024 1024" fill="none" xmlns="http://www.w3.org/2000/svg">
<g filter="url(#filter0_d_1_2)">
<rect x="100" y="100" width="824" height="824" rx="184" fill="white"/>
<rect x="100" y="100" width="824" height="824" rx="184" fill="url(#paint0_linear_1_2)"/>
</g>
<path d="M782.136 639.272C779.143 632.019 776.146 624.161 773.153 617.505C768.354 606.627 763.561 596.341 759.378 586.671L758.779 586.067C717.441 495.372 673.122 403.482 626.391 312.799L624.596 309.163C619.681 299.755 614.891 290.282 610.228 280.745C604.232 269.855 598.248 258.379 588.661 247.49C569.494 223.306 541.936 210 512.59 210C482.633 210 455.68 223.306 435.921 246.276C426.932 257.153 420.338 268.641 414.354 279.531C409.678 289.062 404.889 298.535 399.986 307.949L398.184 311.585C352.058 402.267 307.135 494.164 265.802 584.853L265.198 586.055C261.009 595.743 256.209 606.017 251.416 616.889C248.424 623.544 245.432 630.798 242.44 638.656C234.648 661.022 232.249 682.186 235.253 703.96C241.841 749.307 271.786 787.382 313.125 804.324C328.702 810.98 344.877 814 361.645 814C366.438 814 372.422 813.396 377.222 812.786C396.994 810.37 417.358 803.726 437.129 792.238C461.688 778.328 485.051 758.385 511.405 729.363C537.759 758.385 561.72 778.328 585.681 792.238C605.459 803.726 625.817 810.37 645.582 812.786C650.376 813.402 656.372 814 661.165 814C677.939 814 694.707 810.98 709.679 804.324C751.616 787.382 780.963 748.703 787.557 703.96C792.315 682.802 789.921 661.65 782.136 639.272ZM511.986 670.71C479.635 629.596 458.666 590.905 451.485 558.266C448.493 544.356 447.889 532.264 449.69 521.38C450.881 511.704 454.483 503.236 459.277 495.982C470.659 479.668 489.826 469.383 511.992 469.383C534.163 469.383 553.929 479.058 564.712 495.982C569.506 503.236 573.096 511.71 574.305 521.38C576.094 532.27 575.496 544.96 572.504 558.266C565.293 590.301 544.324 628.999 511.986 670.71ZM750.982 699.128C746.793 730.565 725.824 757.781 696.478 769.872C682.104 775.912 666.521 777.73 650.956 775.912C635.984 774.094 621 769.256 605.435 760.197C583.868 748.093 562.307 729.363 537.143 701.543C576.675 652.578 600.635 607.829 609.624 567.935C613.819 549.188 614.423 532.264 612.616 516.536C610.228 501.424 604.83 487.514 596.446 475.423C577.865 448.207 546.712 432.497 511.98 432.497C477.247 432.497 446.094 448.823 427.525 475.423C419.141 487.514 413.743 501.424 411.349 516.536C408.956 532.264 409.548 549.792 414.342 567.935C423.324 607.829 447.883 653.176 486.816 702.148C462.257 729.961 440.092 748.709 418.524 760.801C402.948 769.873 387.981 774.711 373.009 776.517C356.84 778.335 341.257 775.913 327.481 770.477C298.135 758.385 277.166 731.169 272.977 699.732C271.182 684.62 272.373 669.508 278.369 652.578C280.158 646.526 283.162 640.487 286.154 633.233C290.349 623.557 295.131 613.271 299.93 602.997L300.534 601.795C341.861 511.704 386.186 419.807 432.312 330.333L434.107 326.697C438.907 317.637 443.7 307.961 448.487 298.889C453.281 289.213 458.666 280.141 465.261 272.277C477.84 257.782 494.607 249.912 513.182 249.912C531.757 249.912 548.525 257.782 561.104 272.277C567.698 280.159 573.084 289.231 577.877 298.889C582.677 307.961 587.47 317.637 592.251 326.697L594.053 330.333C639.475 420.179 683.212 510.884 725.238 602.399V603.003C730.037 612.691 734.226 623.563 739.02 633.251C742.012 640.492 745.01 646.532 746.805 652.584C751.586 668.288 753.382 683.412 750.982 699.128Z" fill="white"/>
<defs>
<filter id="filter0_d_1_2" x="78" y="89" width="868" height="868" filterUnits="userSpaceOnUse" color-interpolation-filters="sRGB">
<feFlood flood-opacity="0" result="BackgroundImageFix"/>
<feColorMatrix in="SourceAlpha" type="matrix" values="0 0 0 0 0 0 0 0 0 0 0 0 0 0 0 0 0 0 127 0" result="hardAlpha"/>
<feOffset dy="11"/>
<feGaussianBlur stdDeviation="11"/>
<feColorMatrix type="matrix" values="0 0 0 0 0 0 0 0 0 0 0 0 0 0 0 0 0 0 0.28 0"/>
<feBlend mode="normal" in2="BackgroundImageFix" result="effect1_dropShadow_1_2"/>
<feBlend mode="normal" in="SourceGraphic" in2="effect1_dropShadow_1_2" result="shape"/>
</filter>
<linearGradient id="paint0_linear_1_2" x1="512" y1="100" x2="512" y2="924" gradientUnits="userSpaceOnUse">
<stop stop-color="#EF786F"/>
<stop offset="1" stop-color="#D8595E"/>
</linearGradient>
</defs>
</svg>
