<svg xmlns="http://www.w3.org/2000/svg" xmlns:xlink="http://www.w3.org/1999/xlink" data-stacking-context="true" aria-owns="qr-code-container" width="200" height="200" viewBox="158.5 16 200 200" style="scale: 1; transform-origin: left top; border-radius: 0px;"><!-- Generated by dom-to-svg from https://mini-qr-code-generator.vercel.app/ --><style/><g data-stacking-layer="rootBackgroundAndBorders"/><g data-stacking-layer="childStackingContextsWithNegativeStackLevels"/><g data-stacking-layer="inFlowNonInlineNonPositionedDescendants"/><g data-stacking-layer="nonPositionedFloats"/><g data-stacking-layer="inFlowInlineLevelNonPositionedDescendants"/><g data-stacking-layer="childStackingContextsWithStackLevelZeroAndPositionedDescendantsWithStackLevelZero"/><g data-stacking-layer="childStackingContextsWithPositiveStackLevels"/><g data-tag="div" id="qr-code-container" data-z-index="auto" data-stacking-context="true" aria-owns="grid1"><g data-tag="div" id="grid1" class="grid place-items-center overflow-hidden" data-z-index="auto" data-stacking-context="true" mask="url(#mask-for-grid11)" aria-owns="flex1"><mask id="mask-for-grid11"><rect width="200" height="200" x="158.5" y="16" fill="#ffffff"/></mask><g data-tag="div" id="flex1" class="flex items-center justify-center" data-z-index="auto" data-stacking-context="true" aria-label="QR code" role="img" aria-owns="flex2"><g data-tag="div" id="flex2" class="flex items-center justify-center" data-z-index="auto" data-stacking-context="true" aria-owns="svg1"><g data-tag="svg" id="svg1" data-z-index="auto" data-stacking-context="true" mask="url(#mask-for-svg11)"><g data-stacking-layer="rootBackgroundAndBorders"/><g data-stacking-layer="childStackingContextsWithNegativeStackLevels"/><g data-stacking-layer="inFlowNonInlineNonPositionedDescendants"/><g data-stacking-layer="nonPositionedFloats"/><g data-stacking-layer="inFlowInlineLevelNonPositionedDescendants"/><g data-stacking-layer="childStackingContextsWithStackLevelZeroAndPositionedDescendantsWithStackLevelZero"/><g data-stacking-layer="childStackingContextsWithPositiveStackLevels"/><mask id="mask-for-svg11"><rect width="200" height="200" x="158.5" y="16" fill="#ffffff"/></mask><g class="svg-content" data-view-box="" data-width="200" data-height="200" transform="matrix(1 0 0 1 158.5 16)"><defs color="rgb(2, 8, 23)" fill="rgb(0, 0, 0)" stroke="none"><clipPath id="svg1-clip-path-dot-color"><circle cx="15.5" cy="71.5" r="3.5" transform="matrix(1, 0, 0, 1, 0, 0)" color="rgb(2, 8, 23)" fill="rgb(0, 0, 0)" stroke="none"/><circle cx="15.5" cy="85.5" r="3.5" transform="matrix(1, 0, 0, 1, 0, 0)" color="rgb(2, 8, 23)" fill="rgb(0, 0, 0)" stroke="none"/><circle cx="15.5" cy="92.5" r="3.5" transform="matrix(1, 0, 0, 1, 0, 0)" color="rgb(2, 8, 23)" fill="rgb(0, 0, 0)" stroke="none"/><circle cx="15.5" cy="99.5" r="3.5" transform="matrix(1, 0, 0, 1, 0, 0)" color="rgb(2, 8, 23)" fill="rgb(0, 0, 0)" stroke="none"/><circle cx="15.5" cy="113.5" r="3.5" transform="matrix(1, 0, 0, 1, 0, 0)" color="rgb(2, 8, 23)" fill="rgb(0, 0, 0)" stroke="none"/><circle cx="15.5" cy="127.5" r="3.5" transform="matrix(1, 0, 0, 1, 0, 0)" color="rgb(2, 8, 23)" fill="rgb(0, 0, 0)" stroke="none"/><circle cx="22.5" cy="78.5" r="3.5" transform="matrix(1, 0, 0, 1, 0, 0)" color="rgb(2, 8, 23)" fill="rgb(0, 0, 0)" stroke="none"/><circle cx="22.5" cy="85.5" r="3.5" transform="matrix(1, 0, 0, 1, 0, 0)" color="rgb(2, 8, 23)" fill="rgb(0, 0, 0)" stroke="none"/><circle cx="22.5" cy="99.5" r="3.5" transform="matrix(1, 0, 0, 1, 0, 0)" color="rgb(2, 8, 23)" fill="rgb(0, 0, 0)" stroke="none"/><circle cx="22.5" cy="106.5" r="3.5" transform="matrix(1, 0, 0, 1, 0, 0)" color="rgb(2, 8, 23)" fill="rgb(0, 0, 0)" stroke="none"/><circle cx="29.5" cy="85.5" r="3.5" transform="matrix(1, 0, 0, 1, 0, 0)" color="rgb(2, 8, 23)" fill="rgb(0, 0, 0)" stroke="none"/><circle cx="29.5" cy="99.5" r="3.5" transform="matrix(1, 0, 0, 1, 0, 0)" color="rgb(2, 8, 23)" fill="rgb(0, 0, 0)" stroke="none"/><circle cx="29.5" cy="106.5" r="3.5" transform="matrix(1, 0, 0, 1, 0, 0)" color="rgb(2, 8, 23)" fill="rgb(0, 0, 0)" stroke="none"/><circle cx="29.5" cy="113.5" r="3.5" transform="matrix(1, 0, 0, 1, 0, 0)" color="rgb(2, 8, 23)" fill="rgb(0, 0, 0)" stroke="none"/><circle cx="29.5" cy="120.5" r="3.5" transform="matrix(1, 0, 0, 1, 0, 0)" color="rgb(2, 8, 23)" fill="rgb(0, 0, 0)" stroke="none"/><circle cx="29.5" cy="127.5" r="3.5" transform="matrix(1, 0, 0, 1, 0, 0)" color="rgb(2, 8, 23)" fill="rgb(0, 0, 0)" stroke="none"/><circle cx="36.5" cy="106.5" r="3.5" transform="matrix(1, 0, 0, 1, 0, 0)" color="rgb(2, 8, 23)" fill="rgb(0, 0, 0)" stroke="none"/><circle cx="43.5" cy="78.5" r="3.5" transform="matrix(1, 0, 0, 1, 0, 0)" color="rgb(2, 8, 23)" fill="rgb(0, 0, 0)" stroke="none"/><circle cx="43.5" cy="113.5" r="3.5" transform="matrix(1, 0, 0, 1, 0, 0)" color="rgb(2, 8, 23)" fill="rgb(0, 0, 0)" stroke="none"/><circle cx="43.5" cy="127.5" r="3.5" transform="matrix(1, 0, 0, 1, 0, 0)" color="rgb(2, 8, 23)" fill="rgb(0, 0, 0)" stroke="none"/><circle cx="50.5" cy="85.5" r="3.5" transform="matrix(1, 0, 0, 1, 0, 0)" color="rgb(2, 8, 23)" fill="rgb(0, 0, 0)" stroke="none"/><circle cx="50.5" cy="92.5" r="3.5" transform="matrix(1, 0, 0, 1, 0, 0)" color="rgb(2, 8, 23)" fill="rgb(0, 0, 0)" stroke="none"/><circle cx="50.5" cy="99.5" r="3.5" transform="matrix(1, 0, 0, 1, 0, 0)" color="rgb(2, 8, 23)" fill="rgb(0, 0, 0)" stroke="none"/><circle cx="57.5" cy="71.5" r="3.5" transform="matrix(1, 0, 0, 1, 0, 0)" color="rgb(2, 8, 23)" fill="rgb(0, 0, 0)" stroke="none"/><circle cx="57.5" cy="85.5" r="3.5" transform="matrix(1, 0, 0, 1, 0, 0)" color="rgb(2, 8, 23)" fill="rgb(0, 0, 0)" stroke="none"/><circle cx="57.5" cy="99.5" r="3.5" transform="matrix(1, 0, 0, 1, 0, 0)" color="rgb(2, 8, 23)" fill="rgb(0, 0, 0)" stroke="none"/><circle cx="57.5" cy="113.5" r="3.5" transform="matrix(1, 0, 0, 1, 0, 0)" color="rgb(2, 8, 23)" fill="rgb(0, 0, 0)" stroke="none"/><circle cx="57.5" cy="127.5" r="3.5" transform="matrix(1, 0, 0, 1, 0, 0)" color="rgb(2, 8, 23)" fill="rgb(0, 0, 0)" stroke="none"/><circle cx="64.5" cy="71.5" r="3.5" transform="matrix(1, 0, 0, 1, 0, 0)" color="rgb(2, 8, 23)" fill="rgb(0, 0, 0)" stroke="none"/><circle cx="64.5" cy="85.5" r="3.5" transform="matrix(1, 0, 0, 1, 0, 0)" color="rgb(2, 8, 23)" fill="rgb(0, 0, 0)" stroke="none"/><circle cx="64.5" cy="99.5" r="3.5" transform="matrix(1, 0, 0, 1, 0, 0)" color="rgb(2, 8, 23)" fill="rgb(0, 0, 0)" stroke="none"/><circle cx="64.5" cy="106.5" r="3.5" transform="matrix(1, 0, 0, 1, 0, 0)" color="rgb(2, 8, 23)" fill="rgb(0, 0, 0)" stroke="none"/><circle cx="64.5" cy="127.5" r="3.5" transform="matrix(1, 0, 0, 1, 0, 0)" color="rgb(2, 8, 23)" fill="rgb(0, 0, 0)" stroke="none"/><circle cx="71.5" cy="15.5" r="3.5" transform="matrix(1, 0, 0, 1, 0, 0)" color="rgb(2, 8, 23)" fill="rgb(0, 0, 0)" stroke="none"/><circle cx="71.5" cy="22.5" r="3.5" transform="matrix(1, 0, 0, 1, 0, 0)" color="rgb(2, 8, 23)" fill="rgb(0, 0, 0)" stroke="none"/><circle cx="71.5" cy="36.5" r="3.5" transform="matrix(1, 0, 0, 1, 0, 0)" color="rgb(2, 8, 23)" fill="rgb(0, 0, 0)" stroke="none"/><circle cx="71.5" cy="43.5" r="3.5" transform="matrix(1, 0, 0, 1, 0, 0)" color="rgb(2, 8, 23)" fill="rgb(0, 0, 0)" stroke="none"/><circle cx="71.5" cy="57.5" r="3.5" transform="matrix(1, 0, 0, 1, 0, 0)" color="rgb(2, 8, 23)" fill="rgb(0, 0, 0)" stroke="none"/><circle cx="71.5" cy="78.5" r="3.5" transform="matrix(1, 0, 0, 1, 0, 0)" color="rgb(2, 8, 23)" fill="rgb(0, 0, 0)" stroke="none"/><circle cx="71.5" cy="85.5" r="3.5" transform="matrix(1, 0, 0, 1, 0, 0)" color="rgb(2, 8, 23)" fill="rgb(0, 0, 0)" stroke="none"/><circle cx="71.5" cy="113.5" r="3.5" transform="matrix(1, 0, 0, 1, 0, 0)" color="rgb(2, 8, 23)" fill="rgb(0, 0, 0)" stroke="none"/><circle cx="71.5" cy="127.5" r="3.5" transform="matrix(1, 0, 0, 1, 0, 0)" color="rgb(2, 8, 23)" fill="rgb(0, 0, 0)" stroke="none"/><circle cx="71.5" cy="141.5" r="3.5" transform="matrix(1, 0, 0, 1, 0, 0)" color="rgb(2, 8, 23)" fill="rgb(0, 0, 0)" stroke="none"/><circle cx="71.5" cy="183.5" r="3.5" transform="matrix(1, 0, 0, 1, 0, 0)" color="rgb(2, 8, 23)" fill="rgb(0, 0, 0)" stroke="none"/><circle cx="78.5" cy="15.5" r="3.5" transform="matrix(1, 0, 0, 1, 0, 0)" color="rgb(2, 8, 23)" fill="rgb(0, 0, 0)" stroke="none"/><circle cx="78.5" cy="22.5" r="3.5" transform="matrix(1, 0, 0, 1, 0, 0)" color="rgb(2, 8, 23)" fill="rgb(0, 0, 0)" stroke="none"/><circle cx="78.5" cy="36.5" r="3.5" transform="matrix(1, 0, 0, 1, 0, 0)" color="rgb(2, 8, 23)" fill="rgb(0, 0, 0)" stroke="none"/><circle cx="78.5" cy="78.5" r="3.5" transform="matrix(1, 0, 0, 1, 0, 0)" color="rgb(2, 8, 23)" fill="rgb(0, 0, 0)" stroke="none"/><circle cx="78.5" cy="92.5" r="3.5" transform="matrix(1, 0, 0, 1, 0, 0)" color="rgb(2, 8, 23)" fill="rgb(0, 0, 0)" stroke="none"/><circle cx="78.5" cy="120.5" r="3.5" transform="matrix(1, 0, 0, 1, 0, 0)" color="rgb(2, 8, 23)" fill="rgb(0, 0, 0)" stroke="none"/><circle cx="78.5" cy="134.5" r="3.5" transform="matrix(1, 0, 0, 1, 0, 0)" color="rgb(2, 8, 23)" fill="rgb(0, 0, 0)" stroke="none"/><circle cx="78.5" cy="148.5" r="3.5" transform="matrix(1, 0, 0, 1, 0, 0)" color="rgb(2, 8, 23)" fill="rgb(0, 0, 0)" stroke="none"/><circle cx="78.5" cy="155.5" r="3.5" transform="matrix(1, 0, 0, 1, 0, 0)" color="rgb(2, 8, 23)" fill="rgb(0, 0, 0)" stroke="none"/><circle cx="78.5" cy="162.5" r="3.5" transform="matrix(1, 0, 0, 1, 0, 0)" color="rgb(2, 8, 23)" fill="rgb(0, 0, 0)" stroke="none"/><circle cx="78.5" cy="169.5" r="3.5" transform="matrix(1, 0, 0, 1, 0, 0)" color="rgb(2, 8, 23)" fill="rgb(0, 0, 0)" stroke="none"/><circle cx="78.5" cy="176.5" r="3.5" transform="matrix(1, 0, 0, 1, 0, 0)" color="rgb(2, 8, 23)" fill="rgb(0, 0, 0)" stroke="none"/><circle cx="85.5" cy="29.5" r="3.5" transform="matrix(1, 0, 0, 1, 0, 0)" color="rgb(2, 8, 23)" fill="rgb(0, 0, 0)" stroke="none"/><circle cx="85.5" cy="50.5" r="3.5" transform="matrix(1, 0, 0, 1, 0, 0)" color="rgb(2, 8, 23)" fill="rgb(0, 0, 0)" stroke="none"/><circle cx="85.5" cy="57.5" r="3.5" transform="matrix(1, 0, 0, 1, 0, 0)" color="rgb(2, 8, 23)" fill="rgb(0, 0, 0)" stroke="none"/><circle cx="85.5" cy="85.5" r="3.5" transform="matrix(1, 0, 0, 1, 0, 0)" color="rgb(2, 8, 23)" fill="rgb(0, 0, 0)" stroke="none"/><circle cx="85.5" cy="92.5" r="3.5" transform="matrix(1, 0, 0, 1, 0, 0)" color="rgb(2, 8, 23)" fill="rgb(0, 0, 0)" stroke="none"/><circle cx="85.5" cy="113.5" r="3.5" transform="matrix(1, 0, 0, 1, 0, 0)" color="rgb(2, 8, 23)" fill="rgb(0, 0, 0)" stroke="none"/><circle cx="85.5" cy="120.5" r="3.5" transform="matrix(1, 0, 0, 1, 0, 0)" color="rgb(2, 8, 23)" fill="rgb(0, 0, 0)" stroke="none"/><circle cx="85.5" cy="127.5" r="3.5" transform="matrix(1, 0, 0, 1, 0, 0)" color="rgb(2, 8, 23)" fill="rgb(0, 0, 0)" stroke="none"/><circle cx="85.5" cy="134.5" r="3.5" transform="matrix(1, 0, 0, 1, 0, 0)" color="rgb(2, 8, 23)" fill="rgb(0, 0, 0)" stroke="none"/><circle cx="85.5" cy="155.5" r="3.5" transform="matrix(1, 0, 0, 1, 0, 0)" color="rgb(2, 8, 23)" fill="rgb(0, 0, 0)" stroke="none"/><circle cx="85.5" cy="162.5" r="3.5" transform="matrix(1, 0, 0, 1, 0, 0)" color="rgb(2, 8, 23)" fill="rgb(0, 0, 0)" stroke="none"/><circle cx="85.5" cy="183.5" r="3.5" transform="matrix(1, 0, 0, 1, 0, 0)" color="rgb(2, 8, 23)" fill="rgb(0, 0, 0)" stroke="none"/><circle cx="92.5" cy="15.5" r="3.5" transform="matrix(1, 0, 0, 1, 0, 0)" color="rgb(2, 8, 23)" fill="rgb(0, 0, 0)" stroke="none"/><circle cx="92.5" cy="22.5" r="3.5" transform="matrix(1, 0, 0, 1, 0, 0)" color="rgb(2, 8, 23)" fill="rgb(0, 0, 0)" stroke="none"/><circle cx="92.5" cy="29.5" r="3.5" transform="matrix(1, 0, 0, 1, 0, 0)" color="rgb(2, 8, 23)" fill="rgb(0, 0, 0)" stroke="none"/><circle cx="92.5" cy="36.5" r="3.5" transform="matrix(1, 0, 0, 1, 0, 0)" color="rgb(2, 8, 23)" fill="rgb(0, 0, 0)" stroke="none"/><circle cx="92.5" cy="50.5" r="3.5" transform="matrix(1, 0, 0, 1, 0, 0)" color="rgb(2, 8, 23)" fill="rgb(0, 0, 0)" stroke="none"/><circle cx="92.5" cy="64.5" r="3.5" transform="matrix(1, 0, 0, 1, 0, 0)" color="rgb(2, 8, 23)" fill="rgb(0, 0, 0)" stroke="none"/><circle cx="92.5" cy="71.5" r="3.5" transform="matrix(1, 0, 0, 1, 0, 0)" color="rgb(2, 8, 23)" fill="rgb(0, 0, 0)" stroke="none"/><circle cx="92.5" cy="78.5" r="3.5" transform="matrix(1, 0, 0, 1, 0, 0)" color="rgb(2, 8, 23)" fill="rgb(0, 0, 0)" stroke="none"/><circle cx="92.5" cy="85.5" r="3.5" transform="matrix(1, 0, 0, 1, 0, 0)" color="rgb(2, 8, 23)" fill="rgb(0, 0, 0)" stroke="none"/><circle cx="92.5" cy="92.5" r="3.5" transform="matrix(1, 0, 0, 1, 0, 0)" color="rgb(2, 8, 23)" fill="rgb(0, 0, 0)" stroke="none"/><circle cx="92.5" cy="99.5" r="3.5" transform="matrix(1, 0, 0, 1, 0, 0)" color="rgb(2, 8, 23)" fill="rgb(0, 0, 0)" stroke="none"/><circle cx="92.5" cy="141.5" r="3.5" transform="matrix(1, 0, 0, 1, 0, 0)" color="rgb(2, 8, 23)" fill="rgb(0, 0, 0)" stroke="none"/><circle cx="92.5" cy="155.5" r="3.5" transform="matrix(1, 0, 0, 1, 0, 0)" color="rgb(2, 8, 23)" fill="rgb(0, 0, 0)" stroke="none"/><circle cx="92.5" cy="162.5" r="3.5" transform="matrix(1, 0, 0, 1, 0, 0)" color="rgb(2, 8, 23)" fill="rgb(0, 0, 0)" stroke="none"/><circle cx="92.5" cy="169.5" r="3.5" transform="matrix(1, 0, 0, 1, 0, 0)" color="rgb(2, 8, 23)" fill="rgb(0, 0, 0)" stroke="none"/><circle cx="92.5" cy="176.5" r="3.5" transform="matrix(1, 0, 0, 1, 0, 0)" color="rgb(2, 8, 23)" fill="rgb(0, 0, 0)" stroke="none"/><circle cx="92.5" cy="183.5" r="3.5" transform="matrix(1, 0, 0, 1, 0, 0)" color="rgb(2, 8, 23)" fill="rgb(0, 0, 0)" stroke="none"/><circle cx="99.5" cy="29.5" r="3.5" transform="matrix(1, 0, 0, 1, 0, 0)" color="rgb(2, 8, 23)" fill="rgb(0, 0, 0)" stroke="none"/><circle cx="99.5" cy="50.5" r="3.5" transform="matrix(1, 0, 0, 1, 0, 0)" color="rgb(2, 8, 23)" fill="rgb(0, 0, 0)" stroke="none"/><circle cx="99.5" cy="57.5" r="3.5" transform="matrix(1, 0, 0, 1, 0, 0)" color="rgb(2, 8, 23)" fill="rgb(0, 0, 0)" stroke="none"/><circle cx="99.5" cy="64.5" r="3.5" transform="matrix(1, 0, 0, 1, 0, 0)" color="rgb(2, 8, 23)" fill="rgb(0, 0, 0)" stroke="none"/><circle cx="99.5" cy="78.5" r="3.5" transform="matrix(1, 0, 0, 1, 0, 0)" color="rgb(2, 8, 23)" fill="rgb(0, 0, 0)" stroke="none"/><circle cx="99.5" cy="92.5" r="3.5" transform="matrix(1, 0, 0, 1, 0, 0)" color="rgb(2, 8, 23)" fill="rgb(0, 0, 0)" stroke="none"/><circle cx="99.5" cy="99.5" r="3.5" transform="matrix(1, 0, 0, 1, 0, 0)" color="rgb(2, 8, 23)" fill="rgb(0, 0, 0)" stroke="none"/><circle cx="99.5" cy="120.5" r="3.5" transform="matrix(1, 0, 0, 1, 0, 0)" color="rgb(2, 8, 23)" fill="rgb(0, 0, 0)" stroke="none"/><circle cx="99.5" cy="141.5" r="3.5" transform="matrix(1, 0, 0, 1, 0, 0)" color="rgb(2, 8, 23)" fill="rgb(0, 0, 0)" stroke="none"/><circle cx="99.5" cy="148.5" r="3.5" transform="matrix(1, 0, 0, 1, 0, 0)" color="rgb(2, 8, 23)" fill="rgb(0, 0, 0)" stroke="none"/><circle cx="99.5" cy="183.5" r="3.5" transform="matrix(1, 0, 0, 1, 0, 0)" color="rgb(2, 8, 23)" fill="rgb(0, 0, 0)" stroke="none"/><circle cx="106.5" cy="15.5" r="3.5" transform="matrix(1, 0, 0, 1, 0, 0)" color="rgb(2, 8, 23)" fill="rgb(0, 0, 0)" stroke="none"/><circle cx="106.5" cy="22.5" r="3.5" transform="matrix(1, 0, 0, 1, 0, 0)" color="rgb(2, 8, 23)" fill="rgb(0, 0, 0)" stroke="none"/><circle cx="106.5" cy="29.5" r="3.5" transform="matrix(1, 0, 0, 1, 0, 0)" color="rgb(2, 8, 23)" fill="rgb(0, 0, 0)" stroke="none"/><circle cx="106.5" cy="92.5" r="3.5" transform="matrix(1, 0, 0, 1, 0, 0)" color="rgb(2, 8, 23)" fill="rgb(0, 0, 0)" stroke="none"/><circle cx="106.5" cy="106.5" r="3.5" transform="matrix(1, 0, 0, 1, 0, 0)" color="rgb(2, 8, 23)" fill="rgb(0, 0, 0)" stroke="none"/><circle cx="106.5" cy="120.5" r="3.5" transform="matrix(1, 0, 0, 1, 0, 0)" color="rgb(2, 8, 23)" fill="rgb(0, 0, 0)" stroke="none"/><circle cx="106.5" cy="127.5" r="3.5" transform="matrix(1, 0, 0, 1, 0, 0)" color="rgb(2, 8, 23)" fill="rgb(0, 0, 0)" stroke="none"/><circle cx="106.5" cy="134.5" r="3.5" transform="matrix(1, 0, 0, 1, 0, 0)" color="rgb(2, 8, 23)" fill="rgb(0, 0, 0)" stroke="none"/><circle cx="106.5" cy="155.5" r="3.5" transform="matrix(1, 0, 0, 1, 0, 0)" color="rgb(2, 8, 23)" fill="rgb(0, 0, 0)" stroke="none"/><circle cx="106.5" cy="176.5" r="3.5" transform="matrix(1, 0, 0, 1, 0, 0)" color="rgb(2, 8, 23)" fill="rgb(0, 0, 0)" stroke="none"/><circle cx="113.5" cy="15.5" r="3.5" transform="matrix(1, 0, 0, 1, 0, 0)" color="rgb(2, 8, 23)" fill="rgb(0, 0, 0)" stroke="none"/><circle cx="113.5" cy="22.5" r="3.5" transform="matrix(1, 0, 0, 1, 0, 0)" color="rgb(2, 8, 23)" fill="rgb(0, 0, 0)" stroke="none"/><circle cx="113.5" cy="36.5" r="3.5" transform="matrix(1, 0, 0, 1, 0, 0)" color="rgb(2, 8, 23)" fill="rgb(0, 0, 0)" stroke="none"/><circle cx="113.5" cy="43.5" r="3.5" transform="matrix(1, 0, 0, 1, 0, 0)" color="rgb(2, 8, 23)" fill="rgb(0, 0, 0)" stroke="none"/><circle cx="113.5" cy="57.5" r="3.5" transform="matrix(1, 0, 0, 1, 0, 0)" color="rgb(2, 8, 23)" fill="rgb(0, 0, 0)" stroke="none"/><circle cx="113.5" cy="64.5" r="3.5" transform="matrix(1, 0, 0, 1, 0, 0)" color="rgb(2, 8, 23)" fill="rgb(0, 0, 0)" stroke="none"/><circle cx="113.5" cy="71.5" r="3.5" transform="matrix(1, 0, 0, 1, 0, 0)" color="rgb(2, 8, 23)" fill="rgb(0, 0, 0)" stroke="none"/><circle cx="113.5" cy="78.5" r="3.5" transform="matrix(1, 0, 0, 1, 0, 0)" color="rgb(2, 8, 23)" fill="rgb(0, 0, 0)" stroke="none"/><circle cx="113.5" cy="85.5" r="3.5" transform="matrix(1, 0, 0, 1, 0, 0)" color="rgb(2, 8, 23)" fill="rgb(0, 0, 0)" stroke="none"/><circle cx="113.5" cy="99.5" r="3.5" transform="matrix(1, 0, 0, 1, 0, 0)" color="rgb(2, 8, 23)" fill="rgb(0, 0, 0)" stroke="none"/><circle cx="113.5" cy="106.5" r="3.5" transform="matrix(1, 0, 0, 1, 0, 0)" color="rgb(2, 8, 23)" fill="rgb(0, 0, 0)" stroke="none"/><circle cx="113.5" cy="120.5" r="3.5" transform="matrix(1, 0, 0, 1, 0, 0)" color="rgb(2, 8, 23)" fill="rgb(0, 0, 0)" stroke="none"/><circle cx="113.5" cy="127.5" r="3.5" transform="matrix(1, 0, 0, 1, 0, 0)" color="rgb(2, 8, 23)" fill="rgb(0, 0, 0)" stroke="none"/><circle cx="113.5" cy="141.5" r="3.5" transform="matrix(1, 0, 0, 1, 0, 0)" color="rgb(2, 8, 23)" fill="rgb(0, 0, 0)" stroke="none"/><circle cx="113.5" cy="155.5" r="3.5" transform="matrix(1, 0, 0, 1, 0, 0)" color="rgb(2, 8, 23)" fill="rgb(0, 0, 0)" stroke="none"/><circle cx="113.5" cy="162.5" r="3.5" transform="matrix(1, 0, 0, 1, 0, 0)" color="rgb(2, 8, 23)" fill="rgb(0, 0, 0)" stroke="none"/><circle cx="113.5" cy="169.5" r="3.5" transform="matrix(1, 0, 0, 1, 0, 0)" color="rgb(2, 8, 23)" fill="rgb(0, 0, 0)" stroke="none"/><circle cx="113.5" cy="176.5" r="3.5" transform="matrix(1, 0, 0, 1, 0, 0)" color="rgb(2, 8, 23)" fill="rgb(0, 0, 0)" stroke="none"/><circle cx="113.5" cy="183.5" r="3.5" transform="matrix(1, 0, 0, 1, 0, 0)" color="rgb(2, 8, 23)" fill="rgb(0, 0, 0)" stroke="none"/><circle cx="120.5" cy="15.5" r="3.5" transform="matrix(1, 0, 0, 1, 0, 0)" color="rgb(2, 8, 23)" fill="rgb(0, 0, 0)" stroke="none"/><circle cx="120.5" cy="29.5" r="3.5" transform="matrix(1, 0, 0, 1, 0, 0)" color="rgb(2, 8, 23)" fill="rgb(0, 0, 0)" stroke="none"/><circle cx="120.5" cy="43.5" r="3.5" transform="matrix(1, 0, 0, 1, 0, 0)" color="rgb(2, 8, 23)" fill="rgb(0, 0, 0)" stroke="none"/><circle cx="120.5" cy="71.5" r="3.5" transform="matrix(1, 0, 0, 1, 0, 0)" color="rgb(2, 8, 23)" fill="rgb(0, 0, 0)" stroke="none"/><circle cx="120.5" cy="78.5" r="3.5" transform="matrix(1, 0, 0, 1, 0, 0)" color="rgb(2, 8, 23)" fill="rgb(0, 0, 0)" stroke="none"/><circle cx="120.5" cy="85.5" r="3.5" transform="matrix(1, 0, 0, 1, 0, 0)" color="rgb(2, 8, 23)" fill="rgb(0, 0, 0)" stroke="none"/><circle cx="120.5" cy="92.5" r="3.5" transform="matrix(1, 0, 0, 1, 0, 0)" color="rgb(2, 8, 23)" fill="rgb(0, 0, 0)" stroke="none"/><circle cx="120.5" cy="113.5" r="3.5" transform="matrix(1, 0, 0, 1, 0, 0)" color="rgb(2, 8, 23)" fill="rgb(0, 0, 0)" stroke="none"/><circle cx="120.5" cy="120.5" r="3.5" transform="matrix(1, 0, 0, 1, 0, 0)" color="rgb(2, 8, 23)" fill="rgb(0, 0, 0)" stroke="none"/><circle cx="120.5" cy="127.5" r="3.5" transform="matrix(1, 0, 0, 1, 0, 0)" color="rgb(2, 8, 23)" fill="rgb(0, 0, 0)" stroke="none"/><circle cx="120.5" cy="141.5" r="3.5" transform="matrix(1, 0, 0, 1, 0, 0)" color="rgb(2, 8, 23)" fill="rgb(0, 0, 0)" stroke="none"/><circle cx="120.5" cy="148.5" r="3.5" transform="matrix(1, 0, 0, 1, 0, 0)" color="rgb(2, 8, 23)" fill="rgb(0, 0, 0)" stroke="none"/><circle cx="120.5" cy="162.5" r="3.5" transform="matrix(1, 0, 0, 1, 0, 0)" color="rgb(2, 8, 23)" fill="rgb(0, 0, 0)" stroke="none"/><circle cx="120.5" cy="169.5" r="3.5" transform="matrix(1, 0, 0, 1, 0, 0)" color="rgb(2, 8, 23)" fill="rgb(0, 0, 0)" stroke="none"/><circle cx="120.5" cy="183.5" r="3.5" transform="matrix(1, 0, 0, 1, 0, 0)" color="rgb(2, 8, 23)" fill="rgb(0, 0, 0)" stroke="none"/><circle cx="127.5" cy="15.5" r="3.5" transform="matrix(1, 0, 0, 1, 0, 0)" color="rgb(2, 8, 23)" fill="rgb(0, 0, 0)" stroke="none"/><circle cx="127.5" cy="29.5" r="3.5" transform="matrix(1, 0, 0, 1, 0, 0)" color="rgb(2, 8, 23)" fill="rgb(0, 0, 0)" stroke="none"/><circle cx="127.5" cy="50.5" r="3.5" transform="matrix(1, 0, 0, 1, 0, 0)" color="rgb(2, 8, 23)" fill="rgb(0, 0, 0)" stroke="none"/><circle cx="127.5" cy="57.5" r="3.5" transform="matrix(1, 0, 0, 1, 0, 0)" color="rgb(2, 8, 23)" fill="rgb(0, 0, 0)" stroke="none"/><circle cx="127.5" cy="64.5" r="3.5" transform="matrix(1, 0, 0, 1, 0, 0)" color="rgb(2, 8, 23)" fill="rgb(0, 0, 0)" stroke="none"/><circle cx="127.5" cy="78.5" r="3.5" transform="matrix(1, 0, 0, 1, 0, 0)" color="rgb(2, 8, 23)" fill="rgb(0, 0, 0)" stroke="none"/><circle cx="127.5" cy="99.5" r="3.5" transform="matrix(1, 0, 0, 1, 0, 0)" color="rgb(2, 8, 23)" fill="rgb(0, 0, 0)" stroke="none"/><circle cx="127.5" cy="106.5" r="3.5" transform="matrix(1, 0, 0, 1, 0, 0)" color="rgb(2, 8, 23)" fill="rgb(0, 0, 0)" stroke="none"/><circle cx="127.5" cy="113.5" r="3.5" transform="matrix(1, 0, 0, 1, 0, 0)" color="rgb(2, 8, 23)" fill="rgb(0, 0, 0)" stroke="none"/><circle cx="127.5" cy="127.5" r="3.5" transform="matrix(1, 0, 0, 1, 0, 0)" color="rgb(2, 8, 23)" fill="rgb(0, 0, 0)" stroke="none"/><circle cx="127.5" cy="134.5" r="3.5" transform="matrix(1, 0, 0, 1, 0, 0)" color="rgb(2, 8, 23)" fill="rgb(0, 0, 0)" stroke="none"/><circle cx="127.5" cy="141.5" r="3.5" transform="matrix(1, 0, 0, 1, 0, 0)" color="rgb(2, 8, 23)" fill="rgb(0, 0, 0)" stroke="none"/><circle cx="127.5" cy="148.5" r="3.5" transform="matrix(1, 0, 0, 1, 0, 0)" color="rgb(2, 8, 23)" fill="rgb(0, 0, 0)" stroke="none"/><circle cx="127.5" cy="155.5" r="3.5" transform="matrix(1, 0, 0, 1, 0, 0)" color="rgb(2, 8, 23)" fill="rgb(0, 0, 0)" stroke="none"/><circle cx="127.5" cy="169.5" r="3.5" transform="matrix(1, 0, 0, 1, 0, 0)" color="rgb(2, 8, 23)" fill="rgb(0, 0, 0)" stroke="none"/><circle cx="127.5" cy="176.5" r="3.5" transform="matrix(1, 0, 0, 1, 0, 0)" color="rgb(2, 8, 23)" fill="rgb(0, 0, 0)" stroke="none"/><circle cx="134.5" cy="71.5" r="3.5" transform="matrix(1, 0, 0, 1, 0, 0)" color="rgb(2, 8, 23)" fill="rgb(0, 0, 0)" stroke="none"/><circle cx="134.5" cy="78.5" r="3.5" transform="matrix(1, 0, 0, 1, 0, 0)" color="rgb(2, 8, 23)" fill="rgb(0, 0, 0)" stroke="none"/><circle cx="134.5" cy="99.5" r="3.5" transform="matrix(1, 0, 0, 1, 0, 0)" color="rgb(2, 8, 23)" fill="rgb(0, 0, 0)" stroke="none"/><circle cx="134.5" cy="106.5" r="3.5" transform="matrix(1, 0, 0, 1, 0, 0)" color="rgb(2, 8, 23)" fill="rgb(0, 0, 0)" stroke="none"/><circle cx="134.5" cy="127.5" r="3.5" transform="matrix(1, 0, 0, 1, 0, 0)" color="rgb(2, 8, 23)" fill="rgb(0, 0, 0)" stroke="none"/><circle cx="134.5" cy="155.5" r="3.5" transform="matrix(1, 0, 0, 1, 0, 0)" color="rgb(2, 8, 23)" fill="rgb(0, 0, 0)" stroke="none"/><circle cx="134.5" cy="169.5" r="3.5" transform="matrix(1, 0, 0, 1, 0, 0)" color="rgb(2, 8, 23)" fill="rgb(0, 0, 0)" stroke="none"/><circle cx="134.5" cy="176.5" r="3.5" transform="matrix(1, 0, 0, 1, 0, 0)" color="rgb(2, 8, 23)" fill="rgb(0, 0, 0)" stroke="none"/><circle cx="141.5" cy="78.5" r="3.5" transform="matrix(1, 0, 0, 1, 0, 0)" color="rgb(2, 8, 23)" fill="rgb(0, 0, 0)" stroke="none"/><circle cx="141.5" cy="85.5" r="3.5" transform="matrix(1, 0, 0, 1, 0, 0)" color="rgb(2, 8, 23)" fill="rgb(0, 0, 0)" stroke="none"/><circle cx="141.5" cy="92.5" r="3.5" transform="matrix(1, 0, 0, 1, 0, 0)" color="rgb(2, 8, 23)" fill="rgb(0, 0, 0)" stroke="none"/><circle cx="141.5" cy="99.5" r="3.5" transform="matrix(1, 0, 0, 1, 0, 0)" color="rgb(2, 8, 23)" fill="rgb(0, 0, 0)" stroke="none"/><circle cx="141.5" cy="127.5" r="3.5" transform="matrix(1, 0, 0, 1, 0, 0)" color="rgb(2, 8, 23)" fill="rgb(0, 0, 0)" stroke="none"/><circle cx="141.5" cy="141.5" r="3.5" transform="matrix(1, 0, 0, 1, 0, 0)" color="rgb(2, 8, 23)" fill="rgb(0, 0, 0)" stroke="none"/><circle cx="141.5" cy="155.5" r="3.5" transform="matrix(1, 0, 0, 1, 0, 0)" color="rgb(2, 8, 23)" fill="rgb(0, 0, 0)" stroke="none"/><circle cx="141.5" cy="183.5" r="3.5" transform="matrix(1, 0, 0, 1, 0, 0)" color="rgb(2, 8, 23)" fill="rgb(0, 0, 0)" stroke="none"/><circle cx="148.5" cy="78.5" r="3.5" transform="matrix(1, 0, 0, 1, 0, 0)" color="rgb(2, 8, 23)" fill="rgb(0, 0, 0)" stroke="none"/><circle cx="148.5" cy="92.5" r="3.5" transform="matrix(1, 0, 0, 1, 0, 0)" color="rgb(2, 8, 23)" fill="rgb(0, 0, 0)" stroke="none"/><circle cx="148.5" cy="99.5" r="3.5" transform="matrix(1, 0, 0, 1, 0, 0)" color="rgb(2, 8, 23)" fill="rgb(0, 0, 0)" stroke="none"/><circle cx="148.5" cy="106.5" r="3.5" transform="matrix(1, 0, 0, 1, 0, 0)" color="rgb(2, 8, 23)" fill="rgb(0, 0, 0)" stroke="none"/><circle cx="148.5" cy="113.5" r="3.5" transform="matrix(1, 0, 0, 1, 0, 0)" color="rgb(2, 8, 23)" fill="rgb(0, 0, 0)" stroke="none"/><circle cx="148.5" cy="120.5" r="3.5" transform="matrix(1, 0, 0, 1, 0, 0)" color="rgb(2, 8, 23)" fill="rgb(0, 0, 0)" stroke="none"/><circle cx="148.5" cy="127.5" r="3.5" transform="matrix(1, 0, 0, 1, 0, 0)" color="rgb(2, 8, 23)" fill="rgb(0, 0, 0)" stroke="none"/><circle cx="148.5" cy="155.5" r="3.5" transform="matrix(1, 0, 0, 1, 0, 0)" color="rgb(2, 8, 23)" fill="rgb(0, 0, 0)" stroke="none"/><circle cx="148.5" cy="176.5" r="3.5" transform="matrix(1, 0, 0, 1, 0, 0)" color="rgb(2, 8, 23)" fill="rgb(0, 0, 0)" stroke="none"/><circle cx="148.5" cy="183.5" r="3.5" transform="matrix(1, 0, 0, 1, 0, 0)" color="rgb(2, 8, 23)" fill="rgb(0, 0, 0)" stroke="none"/><circle cx="155.5" cy="71.5" r="3.5" transform="matrix(1, 0, 0, 1, 0, 0)" color="rgb(2, 8, 23)" fill="rgb(0, 0, 0)" stroke="none"/><circle cx="155.5" cy="99.5" r="3.5" transform="matrix(1, 0, 0, 1, 0, 0)" color="rgb(2, 8, 23)" fill="rgb(0, 0, 0)" stroke="none"/><circle cx="155.5" cy="113.5" r="3.5" transform="matrix(1, 0, 0, 1, 0, 0)" color="rgb(2, 8, 23)" fill="rgb(0, 0, 0)" stroke="none"/><circle cx="155.5" cy="120.5" r="3.5" transform="matrix(1, 0, 0, 1, 0, 0)" color="rgb(2, 8, 23)" fill="rgb(0, 0, 0)" stroke="none"/><circle cx="155.5" cy="127.5" r="3.5" transform="matrix(1, 0, 0, 1, 0, 0)" color="rgb(2, 8, 23)" fill="rgb(0, 0, 0)" stroke="none"/><circle cx="155.5" cy="134.5" r="3.5" transform="matrix(1, 0, 0, 1, 0, 0)" color="rgb(2, 8, 23)" fill="rgb(0, 0, 0)" stroke="none"/><circle cx="155.5" cy="141.5" r="3.5" transform="matrix(1, 0, 0, 1, 0, 0)" color="rgb(2, 8, 23)" fill="rgb(0, 0, 0)" stroke="none"/><circle cx="155.5" cy="148.5" r="3.5" transform="matrix(1, 0, 0, 1, 0, 0)" color="rgb(2, 8, 23)" fill="rgb(0, 0, 0)" stroke="none"/><circle cx="155.5" cy="155.5" r="3.5" transform="matrix(1, 0, 0, 1, 0, 0)" color="rgb(2, 8, 23)" fill="rgb(0, 0, 0)" stroke="none"/><circle cx="155.5" cy="176.5" r="3.5" transform="matrix(1, 0, 0, 1, 0, 0)" color="rgb(2, 8, 23)" fill="rgb(0, 0, 0)" stroke="none"/><circle cx="162.5" cy="71.5" r="3.5" transform="matrix(1, 0, 0, 1, 0, 0)" color="rgb(2, 8, 23)" fill="rgb(0, 0, 0)" stroke="none"/><circle cx="162.5" cy="78.5" r="3.5" transform="matrix(1, 0, 0, 1, 0, 0)" color="rgb(2, 8, 23)" fill="rgb(0, 0, 0)" stroke="none"/><circle cx="162.5" cy="92.5" r="3.5" transform="matrix(1, 0, 0, 1, 0, 0)" color="rgb(2, 8, 23)" fill="rgb(0, 0, 0)" stroke="none"/><circle cx="162.5" cy="134.5" r="3.5" transform="matrix(1, 0, 0, 1, 0, 0)" color="rgb(2, 8, 23)" fill="rgb(0, 0, 0)" stroke="none"/><circle cx="162.5" cy="141.5" r="3.5" transform="matrix(1, 0, 0, 1, 0, 0)" color="rgb(2, 8, 23)" fill="rgb(0, 0, 0)" stroke="none"/><circle cx="162.5" cy="176.5" r="3.5" transform="matrix(1, 0, 0, 1, 0, 0)" color="rgb(2, 8, 23)" fill="rgb(0, 0, 0)" stroke="none"/><circle cx="162.5" cy="183.5" r="3.5" transform="matrix(1, 0, 0, 1, 0, 0)" color="rgb(2, 8, 23)" fill="rgb(0, 0, 0)" stroke="none"/><circle cx="169.5" cy="92.5" r="3.5" transform="matrix(1, 0, 0, 1, 0, 0)" color="rgb(2, 8, 23)" fill="rgb(0, 0, 0)" stroke="none"/><circle cx="169.5" cy="106.5" r="3.5" transform="matrix(1, 0, 0, 1, 0, 0)" color="rgb(2, 8, 23)" fill="rgb(0, 0, 0)" stroke="none"/><circle cx="169.5" cy="120.5" r="3.5" transform="matrix(1, 0, 0, 1, 0, 0)" color="rgb(2, 8, 23)" fill="rgb(0, 0, 0)" stroke="none"/><circle cx="169.5" cy="134.5" r="3.5" transform="matrix(1, 0, 0, 1, 0, 0)" color="rgb(2, 8, 23)" fill="rgb(0, 0, 0)" stroke="none"/><circle cx="169.5" cy="155.5" r="3.5" transform="matrix(1, 0, 0, 1, 0, 0)" color="rgb(2, 8, 23)" fill="rgb(0, 0, 0)" stroke="none"/><circle cx="169.5" cy="162.5" r="3.5" transform="matrix(1, 0, 0, 1, 0, 0)" color="rgb(2, 8, 23)" fill="rgb(0, 0, 0)" stroke="none"/><circle cx="169.5" cy="169.5" r="3.5" transform="matrix(1, 0, 0, 1, 0, 0)" color="rgb(2, 8, 23)" fill="rgb(0, 0, 0)" stroke="none"/><circle cx="169.5" cy="176.5" r="3.5" transform="matrix(1, 0, 0, 1, 0, 0)" color="rgb(2, 8, 23)" fill="rgb(0, 0, 0)" stroke="none"/><circle cx="169.5" cy="183.5" r="3.5" transform="matrix(1, 0, 0, 1, 0, 0)" color="rgb(2, 8, 23)" fill="rgb(0, 0, 0)" stroke="none"/><circle cx="176.5" cy="71.5" r="3.5" transform="matrix(1, 0, 0, 1, 0, 0)" color="rgb(2, 8, 23)" fill="rgb(0, 0, 0)" stroke="none"/><circle cx="176.5" cy="78.5" r="3.5" transform="matrix(1, 0, 0, 1, 0, 0)" color="rgb(2, 8, 23)" fill="rgb(0, 0, 0)" stroke="none"/><circle cx="176.5" cy="85.5" r="3.5" transform="matrix(1, 0, 0, 1, 0, 0)" color="rgb(2, 8, 23)" fill="rgb(0, 0, 0)" stroke="none"/><circle cx="176.5" cy="92.5" r="3.5" transform="matrix(1, 0, 0, 1, 0, 0)" color="rgb(2, 8, 23)" fill="rgb(0, 0, 0)" stroke="none"/><circle cx="176.5" cy="113.5" r="3.5" transform="matrix(1, 0, 0, 1, 0, 0)" color="rgb(2, 8, 23)" fill="rgb(0, 0, 0)" stroke="none"/><circle cx="176.5" cy="120.5" r="3.5" transform="matrix(1, 0, 0, 1, 0, 0)" color="rgb(2, 8, 23)" fill="rgb(0, 0, 0)" stroke="none"/><circle cx="176.5" cy="141.5" r="3.5" transform="matrix(1, 0, 0, 1, 0, 0)" color="rgb(2, 8, 23)" fill="rgb(0, 0, 0)" stroke="none"/><circle cx="176.5" cy="148.5" r="3.5" transform="matrix(1, 0, 0, 1, 0, 0)" color="rgb(2, 8, 23)" fill="rgb(0, 0, 0)" stroke="none"/><circle cx="176.5" cy="155.5" r="3.5" transform="matrix(1, 0, 0, 1, 0, 0)" color="rgb(2, 8, 23)" fill="rgb(0, 0, 0)" stroke="none"/><circle cx="176.5" cy="169.5" r="3.5" transform="matrix(1, 0, 0, 1, 0, 0)" color="rgb(2, 8, 23)" fill="rgb(0, 0, 0)" stroke="none"/><circle cx="176.5" cy="176.5" r="3.5" transform="matrix(1, 0, 0, 1, 0, 0)" color="rgb(2, 8, 23)" fill="rgb(0, 0, 0)" stroke="none"/><circle cx="176.5" cy="183.5" r="3.5" transform="matrix(1, 0, 0, 1, 0, 0)" color="rgb(2, 8, 23)" fill="rgb(0, 0, 0)" stroke="none"/><circle cx="183.5" cy="71.5" r="3.5" transform="matrix(1, 0, 0, 1, 0, 0)" color="rgb(2, 8, 23)" fill="rgb(0, 0, 0)" stroke="none"/><circle cx="183.5" cy="78.5" r="3.5" transform="matrix(1, 0, 0, 1, 0, 0)" color="rgb(2, 8, 23)" fill="rgb(0, 0, 0)" stroke="none"/><circle cx="183.5" cy="85.5" r="3.5" transform="matrix(1, 0, 0, 1, 0, 0)" color="rgb(2, 8, 23)" fill="rgb(0, 0, 0)" stroke="none"/><circle cx="183.5" cy="92.5" r="3.5" transform="matrix(1, 0, 0, 1, 0, 0)" color="rgb(2, 8, 23)" fill="rgb(0, 0, 0)" stroke="none"/><circle cx="183.5" cy="99.5" r="3.5" transform="matrix(1, 0, 0, 1, 0, 0)" color="rgb(2, 8, 23)" fill="rgb(0, 0, 0)" stroke="none"/><circle cx="183.5" cy="127.5" r="3.5" transform="matrix(1, 0, 0, 1, 0, 0)" color="rgb(2, 8, 23)" fill="rgb(0, 0, 0)" stroke="none"/><circle cx="183.5" cy="141.5" r="3.5" transform="matrix(1, 0, 0, 1, 0, 0)" color="rgb(2, 8, 23)" fill="rgb(0, 0, 0)" stroke="none"/><circle cx="183.5" cy="162.5" r="3.5" transform="matrix(1, 0, 0, 1, 0, 0)" color="rgb(2, 8, 23)" fill="rgb(0, 0, 0)" stroke="none"/><circle cx="183.5" cy="183.5" r="3.5" transform="matrix(1, 0, 0, 1, 0, 0)" color="rgb(2, 8, 23)" fill="rgb(0, 0, 0)" stroke="none"/></clipPath><clipPath id="svg1-clip-path-corners-square-color-0-0"><path clip-rule="evenodd" d="M 36.5 12a 24.5 24.5 0 1 0 0.1 0zm 0 7a 17.5 17.5 0 1 1 -0.1 0Z" transform="matrix(1, 0, 0, 1, 0, 0)" color="rgb(2, 8, 23)" fill="rgb(0, 0, 0)" stroke="none"/></clipPath><clipPath id="svg1-clip-path-corners-dot-color-0-0"><circle cx="36.5" cy="36.5" r="10.5" transform="matrix(1, 0, 0, 1, 0, 0)" color="rgb(2, 8, 23)" fill="rgb(0, 0, 0)" stroke="none"/></clipPath><clipPath id="svg1-clip-path-corners-square-color-1-0"><path clip-rule="evenodd" d="M 162.5 12a 24.5 24.5 0 1 0 0.1 0zm 0 7a 17.5 17.5 0 1 1 -0.1 0Z" transform="matrix(0, 1, -1, 0, 199, -126)" color="rgb(2, 8, 23)" fill="rgb(0, 0, 0)" stroke="none"/></clipPath><clipPath id="svg1-clip-path-corners-dot-color-1-0"><circle cx="162.5" cy="36.5" r="10.5" transform="matrix(0, 1, -1, 0, 199, -126)" color="rgb(2, 8, 23)" fill="rgb(0, 0, 0)" stroke="none"/></clipPath><clipPath id="svg1-clip-path-corners-square-color-0-1"><path clip-rule="evenodd" d="M 36.5 138a 24.5 24.5 0 1 0 0.1 0zm 0 7a 17.5 17.5 0 1 1 -0.1 0Z" transform="matrix(0, -1, 1, 0, -126, 199)" color="rgb(2, 8, 23)" fill="rgb(0, 0, 0)" stroke="none"/></clipPath><clipPath id="svg1-clip-path-corners-dot-color-0-1"><circle cx="36.5" cy="162.5" r="10.5" transform="matrix(0, -1, 1, 0, -126, 199)" color="rgb(2, 8, 23)" fill="rgb(0, 0, 0)" stroke="none"/></clipPath></defs><rect x="0" y="0" height="200" width="200" clip-path="url(&quot;#svg1-clip-path-background-color&quot;)" fill="rgba(0, 0, 0, 0)" color="rgb(2, 8, 23)" stroke="none"/><rect x="0" y="0" height="200" width="200" clip-path="url(&quot;#svg1-clip-path-dot-color&quot;)" fill="rgb(0, 0, 0)" color="rgb(2, 8, 23)" stroke="none"/><rect x="12" y="12" height="49" width="49" clip-path="url(&quot;#svg1-clip-path-corners-square-color-0-0&quot;)" fill="rgb(0, 0, 0)" color="rgb(2, 8, 23)" stroke="none"/><rect x="26" y="26" height="21" width="21" clip-path="url(&quot;#svg1-clip-path-corners-dot-color-0-0&quot;)" fill="rgb(0, 0, 0)" color="rgb(2, 8, 23)" stroke="none"/><rect x="138" y="12" height="49" width="49" clip-path="url(&quot;#svg1-clip-path-corners-square-color-1-0&quot;)" fill="rgb(0, 0, 0)" color="rgb(2, 8, 23)" stroke="none"/><rect x="152" y="26" height="21" width="21" clip-path="url(&quot;#svg1-clip-path-corners-dot-color-1-0&quot;)" fill="rgb(0, 0, 0)" color="rgb(2, 8, 23)" stroke="none"/><rect x="12" y="138" height="49" width="49" clip-path="url(&quot;#svg1-clip-path-corners-square-color-0-1&quot;)" fill="rgb(0, 0, 0)" color="rgb(2, 8, 23)" stroke="none"/><rect x="26" y="152" height="21" width="21" clip-path="url(&quot;#svg1-clip-path-corners-dot-color-0-1&quot;)" fill="rgb(0, 0, 0)" color="rgb(2, 8, 23)" stroke="none"/></g></g></g></g></g></g></svg>